<svg xmlns="http://www.w3.org/2000/svg" width="56" height="56" viewBox="0 0 56 56">
  <g id="facebook" transform="translate(-232 -449)">
    <g id="Grupo_184" data-name="Grupo 184">
      <g id="Ellipse_43" data-name="Ellipse 43" transform="translate(232 449)" fill="none" stroke="#fff" stroke-width="1">
        <circle cx="28" cy="28" r="28" stroke="none"/>
        <circle cx="28" cy="28" r="27.5" fill="none"/>
      </g>
      <path id="Path_1" data-name="Path 1" d="M85.422,16V8.711h2.489l.356-2.844H85.422V4.089c0-.8.267-1.422,1.422-1.422h1.511V.089C88,.089,87.111,0,86.133,0a3.431,3.431,0,0,0-3.644,3.733V5.867H80V8.711h2.489V16Z" transform="translate(176 469)" fill="#fff"/>
      <path id="Path_1-2" data-name="Path 1" d="M85.422,16V8.711h2.489l.356-2.844H85.422V4.089c0-.8.267-1.422,1.422-1.422h1.511V.089C88,.089,87.111,0,86.133,0a3.431,3.431,0,0,0-3.644,3.733V5.867H80V8.711h2.489V16Z" transform="translate(176 469)" fill="#fff"/>
    </g>
  </g>
</svg>
