<svg xmlns="http://www.w3.org/2000/svg" width="58" height="50.252" viewBox="0 0 58 50.252">
  <g id="Grupo_200" data-name="Grupo 200" transform="translate(-2153 -251)">
    <rect id="Rectángulo_280" data-name="Rectángulo 280" width="58" height="25" transform="translate(2153 251)" fill="#ffb4ad"/>
    <path id="Trazado_359" data-name="Trazado 359" d="M734.727,366.384c1.1-2.669.248-4.31-.66-5.217a3.91,3.91,0,0,0-2.861-1.178c-2.848,0-5.934,2.661-7.519,4.248l-2.752,2.751-21.051-4.51a.821.821,0,0,0-.757.225l-3.071,3.069a.828.828,0,0,0,.267,1.349l17.422,7.26c-3.418,3.685-7.86,8.777-10.015,12.506L696.8,385.5a.824.824,0,0,0-.747.225l-3.07,3.071a.827.827,0,0,0,.323,1.369l8.818,2.938,2.939,8.818a.82.82,0,0,0,.6.544.829.829,0,0,0,.191.022.819.819,0,0,0,.584-.242l3.07-3.07a.827.827,0,0,0,.226-.747l-1.386-6.928c3.724-2.153,8.818-6.6,12.506-10.017l7.261,17.426a.827.827,0,0,0,1.348.266l3.069-3.071a.823.823,0,0,0,.225-.758L728.245,374.3,731,371.546A17.241,17.241,0,0,0,734.727,366.384Zm-8.335,9.769.46-.46,4.192,19.563-1.879,1.879-7.022-16.855C724.081,378.448,725.634,376.911,726.393,376.153ZM698.1,366.069l1.879-1.878,19.562,4.192-.46.46c-.752.751-2.282,2.294-4.127,4.249Zm8.507,25.166,1.417,7.085-1.81,1.811-2.647-7.941a.837.837,0,0,0-.524-.522l-7.94-2.646,1.81-1.811L704,388.628a.826.826,0,0,0,.891-.42c3.052-5.69,12.53-15.365,15.362-18.2l4.6-4.6c2.392-2.392,4.706-3.763,6.349-3.763a2.281,2.281,0,0,1,1.691.692c.813.813.911,1.931.3,3.418a15.232,15.232,0,0,1-3.37,4.623l-4.6,4.605c-2.834,2.834-12.52,12.319-18.2,15.362A.823.823,0,0,0,706.607,391.235Z" transform="translate(1460.255 -101.239)" fill="#00695c"/>
  </g>
</svg>
