<svg xmlns="http://www.w3.org/2000/svg" width="70.5" height="52" viewBox="0 0 70.5 52">
  <g id="Grupo_201" data-name="Grupo 201" transform="translate(-2243 -251)">
    <rect id="Rectángulo_281" data-name="Rectángulo 281" width="52" height="27" transform="translate(2308 251) rotate(90)" fill="#ffb4ad"/>
    <path id="Trazado_358" data-name="Trazado 358" d="M502.467,399.971V388.2a2.936,2.936,0,0,0-2.925-3h-.869v-1.976a9.037,9.037,0,0,0-7.113-9.089V363.061A3.17,3.17,0,0,0,488.4,359.9H445.64a3.171,3.171,0,0,0-3.161,3.161v11.065a9.037,9.037,0,0,0-7.113,9.089v1.976h-.474a2.986,2.986,0,0,0-2.924,3v11.776h1.976v-4.979h66.47v4.979Zm-58.012-36.91a1.215,1.215,0,0,1,1.185-1.186H488.4a1.216,1.216,0,0,1,1.186,1.186V373.81h-3.557v-2.529a3.255,3.255,0,0,0-3.241-3.241h-8.3a3.255,3.255,0,0,0-3.24,3.241v2.529h-9.01v-2.529A3.255,3.255,0,0,0,459,368.041h-8.3a3.255,3.255,0,0,0-3.241,3.241v2.529h-3Zm39.6,10.749H473.224v-2.529a1.248,1.248,0,0,1,1.265-1.265h8.378a1.249,1.249,0,0,1,1.265,1.265v2.529Zm-23.79,0H449.434v-2.529a1.248,1.248,0,0,1,1.265-1.265h8.378a1.249,1.249,0,0,1,1.265,1.265v2.529Zm-22.92,9.406a7.313,7.313,0,0,1,7.587-7.429h44.1a7.223,7.223,0,0,1,7.588,7.429v1.976H437.341Zm-3.4,9.8V388.2a.98.98,0,0,1,.948-1.028h64.651a1.035,1.035,0,0,1,.949,1.028v4.821Z" transform="translate(1811.033 -99.15)" fill="#00695c"/>
  </g>
</svg>
