<?xml version="1.0" encoding="utf-8"?>
<!-- Generator: Adobe Illustrator 22.1.0, SVG Export Plug-In . SVG Version: 6.00 Build 0)  -->
<svg version="1.1" id="Capa_1" xmlns="http://www.w3.org/2000/svg" xmlns:xlink="http://www.w3.org/1999/xlink" x="0px" y="0px"
	 viewBox="0 0 173.5 31.6" style="enable-background:new 0 0 173.5 31.6;" xml:space="preserve">
<style type="text/css">
	.st0{fill:#449686;}
	.st1{font-family:'OpenSans';}
	.st2{font-size:23px;}
	.st3{letter-spacing:1;}
	.st4{fill:#023D34;}
	.st5{font-family:'OpenSans-Semibold';}
</style>
<g id="Grupo_107" transform="translate(-1038.739 -410.84)">
	<g id="Grupo_7" transform="translate(1072.95 410.84)">
		<text transform="matrix(1 0 0 1 2.5 23.5)" class="st0 st1 st2 st3">foodie </text>
		<text transform="matrix(1 0 0 1 84.9182 23.5)" class="st4 st5 st2 st3">fogg</text>
	</g>
	<path id="Trazado_18" class="st4" d="M1065.4,426.4c0,0,0,0.1,0,0.1c-0.1,6.4-5.3,11.5-11.8,11.5c-6.3-0.1-11.5-5.2-11.5-11.6
		c-0.2-6.3,4.8-11.5,11.1-11.6c0.1,0,0.1,0,0.2,0c0.6,0,1.1,0,1.7,0.2v-0.8c-0.5-0.1-1.1-0.2-1.7-0.2c-6.8,0-12.3,5.5-12.2,12.3
		c0,0,0,0.1,0,0.1c0,6.9,5.6,12.4,12.5,12.4c6.8,0.1,12.4-5.4,12.4-12.2c0,0,0,0,0-0.1c0-0.1,0-0.1,0-0.1L1065.4,426.4z"/>
	<g id="Grupo_8" transform="translate(1046.706 421.83)">
		<rect id="Rectángulo_16" x="6.2" y="9.4" class="st0" width="1.9" height="1.3"/>
		<path id="Trazado_19" class="st0" d="M7.8-1.5c-0.2,0-0.4,0-0.6,0c-0.2,0-0.4,0-0.6,0C6.1-0.3,5.8,0.9,5.8,2.2
			C6,4.4,6.4,6.6,7,8.8h0.3C8,6.6,8.4,4.4,8.6,2.2C8.6,0.9,8.3-0.3,7.8-1.5z"/>
		<path id="Trazado_20" class="st0" d="M5.4-1.2C3.8-0.8,2.6,0.6,2.5,2.3c0,2.3,2.9,4.8,3.7,6.5h0.4C6.3,8.4,4.1,4.1,4.1,2.2
			C4.1,0.9,4.6-0.3,5.4-1.2z"/>
		<path id="Trazado_21" class="st0" d="M11.9,2.3c-0.2-1.7-1.4-3.2-3.2-3.6c1,0.9,1.5,2.2,1.6,3.5c0,2.1-2.2,6.1-2.6,6.6h0.4
			C8.5,7.8,11.9,4.6,11.9,2.3z"/>
	</g>
	<g id="Grupo_9" transform="translate(1057.411 417.04)">
		<rect id="Rectángulo_17" x="4.9" y="5.6" class="st0" width="1.2" height="0.8"/>
		<path id="Trazado_22" class="st0" d="M5.9-1.5c-0.1,0-0.3,0-0.4,0s-0.2,0-0.4,0C4.8-0.7,4.6,0,4.6,0.8C4.8,2.3,5,3.7,5.4,5.1h0.2
			C6,3.7,6.3,2.3,6.4,0.8C6.4,0,6.3-0.8,5.9-1.5z"/>
		<path id="Trazado_23" class="st0" d="M4.4-1.3C3.3-1,2.6-0.1,2.5,0.9c0,1.5,1.9,3.1,2.4,4.2h0.3C5,4.6,3.6,2.1,3.5,0.8
			C3.6,0,3.8-0.7,4.4-1.3z"/>
		<path id="Trazado_24" class="st0" d="M8.6,0.9c-0.1-1.1-0.9-2.1-2-2.3c0.6,0.6,1,1.4,1,2.2c0,1.4-1.4,3.8-1.7,4.2h0.3
			C6.4,4.6,8.6,2.4,8.6,0.9z"/>
	</g>
</g>
</svg>
