<?xml version="1.0" encoding="utf-8"?>
<!-- Generator: Adobe Illustrator 22.1.0, SVG Export Plug-In . SVG Version: 6.00 Build 0)  -->
<svg version="1.1" id="Capa_1" xmlns="http://www.w3.org/2000/svg" xmlns:xlink="http://www.w3.org/1999/xlink" x="0px" y="0px"
	 viewBox="0 0 70.5 52" style="enable-background:new 0 0 70.5 52;" xml:space="preserve">
<style type="text/css">
	.st0{fill:#FFB4AD;}
	.st1{fill:#00695C;}
</style>
<g id="Grupo_199" transform="translate(-2044 -251)">
	<rect id="Rectángulo_279" x="2044" y="283" class="st0" width="58" height="20"/>
	<g id="Grupo_191" transform="translate(1479.631 -108.32)">
		<path id="Trazado_307" class="st1" d="M602.5,399.6c9.1,0,16.5-7.4,16.5-16.5s-7.4-16.5-16.5-16.5S586,374,586,383.1
			C586,392.2,593.4,399.6,602.5,399.6z M602.5,368.4c8.1,0,14.7,6.6,14.7,14.7s-6.6,14.7-14.7,14.7s-14.7-6.6-14.7-14.7
			C587.8,374.9,594.4,368.4,602.5,368.4z"/>
		<path id="Trazado_308" class="st1" d="M581.8,400.4v-27.2c2.1-0.4,3.5-2.3,3.5-4.4v-0.2c0-5.8,0-5.9,0-5.9c0-0.5-0.5-0.9-1-0.8
			c-0.5,0-0.9,0.5-0.9,0.9c0,0.1,0,0.8,0,5.8v0.2c0,1.4-1.2,2.6-2.6,2.6s-2.6-1.2-2.6-2.6v-0.2c0-4.9,0-5.7,0-5.8
			c0-0.5-0.4-0.9-0.9-1c-0.5,0-0.9,0.4-1,0.8c0,0.1,0,0.1,0,5.9v0.2c0,2.1,1.5,3.9,3.5,4.4v27.2c0,0.5,0.4,0.9,0.9,0.9
			S581.8,400.9,581.8,400.4L581.8,400.4L581.8,400.4z"/>
		<path id="Trazado_309" class="st1" d="M580.9,370.3c0.5,0,0.9-0.4,0.9-0.9l0,0v-6.6c0-0.5-0.4-0.9-0.9-1c-0.5,0-0.9,0.4-1,0.9
			c0,0,0,0,0,0.1v6.6C579.9,369.9,580.4,370.3,580.9,370.3z"/>
		<path id="Trazado_310" class="st1" d="M625.5,361.1c-1.6,0-2.9,1.3-2.9,2.9v0.1c0,17.1,0,17.1,0,17.2c0,0.5,0.4,0.8,0.9,0.8h3.1
			v18.2c0,0.5,0.4,0.9,1,0.9c0.5,0,0.9-0.4,0.9-0.9v-36.4C628.4,362.4,627.1,361.1,625.5,361.1z M626.6,380.4h-2.2
			c0-2.5,0-9.5,0-16.2v-0.1c0-0.6,0.5-1.1,1.1-1.1s1.1,0.5,1.1,1.1L626.6,380.4L626.6,380.4z"/>
	</g>
</g>
</svg>
