<?xml version="1.0" encoding="utf-8"?>
<!-- Generator: Adobe Illustrator 22.1.0, SVG Export Plug-In . SVG Version: 6.00 Build 0)  -->
<svg version="1.1" id="Capa_1" xmlns="http://www.w3.org/2000/svg" xmlns:xlink="http://www.w3.org/1999/xlink" x="0px" y="0px"
	 viewBox="0 0 120 120" style="enable-background:new 0 0 120 120;" xml:space="preserve">
<style type="text/css">
	.st0{fill:#003D33;}
	.st1{fill:#FFFFFF;}
</style>
<g>
	<path class="st0" d="M109.2,59.5c0-26.9-21.8-48.8-48.8-48.8S11.8,32.6,11.8,59.5c0,24.3,17.8,44.5,41.1,48.2V73.6H40.5V59.5h12.4
		V48.8c0-12.2,7.3-19,18.4-19c5.3,0,10.9,1,10.9,1v12h-6.1c-6.1,0-7.9,3.8-7.9,7.6v9.1h13.5l-2.2,14.1H68.1v34.1
		C91.4,104,109.2,83.8,109.2,59.5z"/>
	<path class="st1" d="M79.5,73.6l2.2-14.1H68.1v-9.1c0-3.9,1.9-7.6,7.9-7.6h6.1v-12c0,0-5.6-1-10.9-1c-11.1,0-18.4,6.7-18.4,19v10.7
		H40.5v14.1h12.4v34.1c2.5,0.4,5,0.6,7.6,0.6s5.1-0.2,7.6-0.6V73.6H79.5z"/>
</g>
</svg>
