<svg id="Layer_1" data-name="Layer 1" xmlns="http://www.w3.org/2000/svg" viewBox="0 0 15.83 16"><defs><style>.cls-1{fill:#449686;}</style></defs><title>favicon</title><rect class="cls-1" x="3.5" y="14.81" width="1.78" height="1.19"/><path class="cls-1" d="M636.74,396l-0.58,0-0.52,0a9.8,9.8,0,0,0-.79,3.46,41.45,41.45,0,0,0,1.18,6.25h0.31a29.62,29.62,0,0,0,1.16-6.25A8,8,0,0,0,636.74,396Z" transform="translate(-631.77 -391.49)"/><path class="cls-1" d="M634.48,396.26a3.82,3.82,0,0,0-2.71,3.32c0,2.19,2.71,4.58,3.5,6.16h0.38c-0.3-.42-2.34-4.44-2.36-6.25A5.07,5.07,0,0,1,634.48,396.26Z" transform="translate(-631.77 -391.49)"/><path class="cls-1" d="M640.61,399.63a4,4,0,0,0-3-3.42,4.68,4.68,0,0,1,1.48,3.3c0,2-2.11,5.8-2.43,6.23h0.37C637.42,404.79,640.61,401.77,640.61,399.63Z" transform="translate(-631.77 -391.49)"/><rect class="cls-1" x="12.37" y="6.66" width="1.15" height="0.77"/><path class="cls-1" d="M645.09,391.51l-0.37,0h-0.34a6.11,6.11,0,0,0-.51,2.2,30.47,30.47,0,0,0,.76,4h0.2a20.91,20.91,0,0,0,.75-4A5,5,0,0,0,645.09,391.51Z" transform="translate(-631.77 -391.49)"/><path class="cls-1" d="M643.63,391.65a2.43,2.43,0,0,0-1.75,2.11c0,1.42,1.75,2.89,2.27,4h0.25c-0.19-.42-1.51-2.84-1.53-4A3.16,3.16,0,0,1,643.63,391.65Z" transform="translate(-631.77 -391.49)"/><path class="cls-1" d="M647.6,393.8a2.54,2.54,0,0,0-1.92-2.19,3,3,0,0,1,1,2.11c0,1.29-1.37,3.58-1.57,4h0.24C645.53,397.29,647.6,395.18,647.6,393.8Z" transform="translate(-631.77 -391.49)"/></svg>