<svg id="Capa_1" data-name="Capa 1" xmlns="http://www.w3.org/2000/svg" viewBox="0 0 80 80"><defs><style>.cls-1{fill:#ffb4ad;}.cls-2{fill:#00695c;}</style></defs><title>icons</title><g id="Grupo_200" data-name="Grupo 200"><rect id="Rectángulo_280" data-name="Rectángulo 280" class="cls-1" x="10" y="14.21" width="59.78" height="25.77"/><path id="Trazado_359" data-name="Trazado 359" class="cls-2" d="M53.28,28.79c1.13-2.75.25-4.45-.68-5.38a4.09,4.09,0,0,0-3-1.22c-2.94,0-6.12,2.75-7.75,4.38l-2.84,2.84-21.7-4.65a.87.87,0,0,0-.78.23l-3.16,3.17a.83.83,0,0,0,0,1.2,1,1,0,0,0,.27.19l18,7.48c-3.52,3.8-8.1,9-10.32,12.89l-7.15-1.43a.85.85,0,0,0-.77.23l-3.16,3.17a.85.85,0,0,0,0,1.2.78.78,0,0,0,.33.21l9.09,3,3,9.09a.86.86,0,0,0,.62.56l.2,0a.86.86,0,0,0,.6-.25l3.16-3.16a.88.88,0,0,0,.24-.77l-1.43-7.15c3.84-2.21,9.09-6.8,12.89-10.32l7.48,18a.85.85,0,0,0,1.12.46,1,1,0,0,0,.27-.18L51,59.42a.86.86,0,0,0,.23-.78L46.6,37l2.84-2.84A17.86,17.86,0,0,0,53.28,28.79ZM44.69,38.86l.47-.48,4.32,20.17-1.94,1.93L40.31,43.11c2-1.89,3.6-3.47,4.38-4.25ZM15.52,28.46l1.94-1.93,20.16,4.32-.47.47c-.77.77-2.35,2.37-4.25,4.38ZM24.29,54.4l1.46,7.3-1.86,1.87-2.73-8.18a.85.85,0,0,0-.54-.54l-8.19-2.73,1.87-1.87,7.31,1.46a.83.83,0,0,0,.91-.43c3.15-5.86,12.92-15.84,15.84-18.76l4.74-4.74c2.47-2.47,4.85-3.88,6.54-3.88a2.38,2.38,0,0,1,1.75.71c.84.84.94,2,.31,3.53a15.72,15.72,0,0,1-3.48,4.76l-4.74,4.75c-2.92,2.92-12.9,12.7-18.76,15.83A.86.86,0,0,0,24.29,54.4Z"/></g></svg>