<svg id="Capa_1" data-name="Capa 1" xmlns="http://www.w3.org/2000/svg" viewBox="0 0 80 80"><defs><style>.cls-1{fill:#ffb4ad;}.cls-2{fill:#00695c;}</style></defs><title>icons</title><g id="Grupo_201" data-name="Grupo 201"><rect id="Rectángulo_281" data-name="Rectángulo 281" class="cls-1" x="42.87" y="14" width="27" height="52"/><path id="Trazado_358" data-name="Trazado 358" class="cls-2" d="M75.37,63.82V52.05a2.94,2.94,0,0,0-2.87-3h-.92v-2A9,9,0,0,0,64.47,38V26.91a3.18,3.18,0,0,0-3.16-3.16H18.55a3.17,3.17,0,0,0-3.16,3.16V38a9,9,0,0,0-7.12,9.08v2H7.8a3,3,0,0,0-2.92,3V63.82h2v-5H73.32v5Zm-58-36.91a1.23,1.23,0,0,1,1.19-1.19H61.31a1.21,1.21,0,0,1,1.18,1.19V37.66H58.94V35.13a3.26,3.26,0,0,0-3.24-3.24H47.4a3.25,3.25,0,0,0-3.24,3.24v2.53h-9V35.13a3.27,3.27,0,0,0-3.24-3.24h-8.3a3.25,3.25,0,0,0-3.24,3.24v2.53h-3ZM57,37.66H46.13V35.13a1.24,1.24,0,0,1,1.23-1.26h8.41A1.25,1.25,0,0,1,57,35.1v2.56Zm-23.79,0H22.34V35.13a1.24,1.24,0,0,1,1.23-1.26H32a1.25,1.25,0,0,1,1.27,1.23v2.56ZM10.25,47.07a7.33,7.33,0,0,1,7.19-7.44h44.5a7.22,7.22,0,0,1,7.58,6.84c0,.2,0,.39,0,.59v2H10.25Zm-3.4,9.8V52.05a1,1,0,0,1,.93-1H72.45a1,1,0,0,1,1,1v4.82Z"/></g></svg>