<?xml version="1.0" encoding="utf-8"?>
<!-- Generator: Adobe Illustrator 22.1.0, SVG Export Plug-In . SVG Version: 6.00 Build 0)  -->
<svg version="1.1" id="Capa_1" xmlns="http://www.w3.org/2000/svg" xmlns:xlink="http://www.w3.org/1999/xlink" x="0px" y="0px"
	 viewBox="0 0 120 120" style="enable-background:new 0 0 120 120;" xml:space="preserve">
<style type="text/css">
	.st0{fill:#003D33;}
</style>
<g>
	<path class="st0" d="M60.1,20.7c12.8,0,14.3,0,19.4,0.3c4.7,0.2,7.2,1,8.9,1.7c2.2,0.9,3.8,1.9,5.5,3.6s2.7,3.3,3.6,5.5
		c0.7,1.7,1.4,4.2,1.7,8.9c0.2,5.1,0.3,6.6,0.3,19.4s0,14.3-0.3,19.4c-0.2,4.7-1,7.2-1.7,8.9c-0.9,2.2-1.9,3.8-3.6,5.5
		s-3.3,2.7-5.5,3.6c-1.7,0.7-4.2,1.4-8.9,1.7c-5.1,0.2-6.6,0.3-19.4,0.3s-14.3,0-19.4-0.3c-4.7-0.2-7.2-1-8.9-1.7
		c-2.2-0.9-3.8-1.9-5.5-3.6s-2.7-3.3-3.6-5.5c-0.7-1.7-1.4-4.2-1.7-8.9c-0.2-5.1-0.3-6.6-0.3-19.4s0-14.3,0.3-19.4
		c0.2-4.7,1-7.2,1.7-8.9c0.9-2.2,1.9-3.8,3.6-5.5s3.3-2.7,5.5-3.6c1.7-0.7,4.2-1.4,8.9-1.7C45.7,20.8,47.3,20.7,60.1,20.7
		 M60.1,12.1c-13,0-14.7,0.1-19.8,0.3s-8.6,1-11.7,2.2c-3.2,1.2-5.8,2.9-8.5,5.5c-2.7,2.7-4.3,5.3-5.5,8.5c-1.2,3.1-2,6.5-2.2,11.7
		c-0.2,5.1-0.3,6.8-0.3,19.8s0.1,14.7,0.3,19.8s1,8.6,2.2,11.7c1.2,3.2,2.9,5.8,5.5,8.5c2.7,2.7,5.3,4.3,8.5,5.5
		c3.1,1.2,6.5,2,11.7,2.2c5.1,0.2,6.8,0.3,19.8,0.3s14.7-0.1,19.8-0.3c5.1-0.2,8.6-1,11.7-2.2c3.2-1.2,5.8-2.9,8.5-5.5
		c2.7-2.7,4.3-5.3,5.5-8.5c1.2-3.1,2-6.5,2.2-11.7c0.2-5.1,0.3-6.8,0.3-19.8s-0.1-14.7-0.3-19.8c-0.2-5.1-1-8.6-2.2-11.7
		c-1.2-3.2-2.9-5.8-5.5-8.5c-2.7-2.7-5.3-4.3-8.5-5.5c-3.1-1.2-6.5-2-11.7-2.2C74.8,12.1,73.1,12.1,60.1,12.1L60.1,12.1z"/>
	<path class="st0" d="M60.1,35.4c-13.6,0-24.6,11-24.6,24.6s11,24.6,24.6,24.6s24.6-11,24.6-24.6S73.7,35.4,60.1,35.4z M60.1,76.1
		c-8.8,0-16-7.2-16-16s7.2-16,16-16s16,7.2,16,16S68.9,76.1,60.1,76.1z"/>
	<circle class="st0" cx="85.7" cy="34.5" r="5.8"/>
</g>
</svg>
