<?xml version="1.0" encoding="utf-8"?>
<!-- Generator: Adobe Illustrator 22.1.0, SVG Export Plug-In . SVG Version: 6.00 Build 0)  -->
<svg version="1.1" id="Capa_1" xmlns="http://www.w3.org/2000/svg" xmlns:xlink="http://www.w3.org/1999/xlink" x="0px" y="0px"
	 viewBox="0 0 227 46" style="enable-background:new 0 0 227 46;" xml:space="preserve">
<style type="text/css">
	.st0{fill:#449686;}
	.st1{fill:#023D34;}
</style>
<g>
	<path class="st0" d="M59.4,19.2h-4.2v14.6h-2.5V19.2h-3v-1.1l3-0.9v-0.9c0-4.1,1.8-6.1,5.3-6.1c0.9,0,1.9,0.2,3.1,0.5l-0.6,2
		c-1-0.3-1.8-0.5-2.5-0.5c-0.9,0-1.6,0.3-2.1,0.9c-0.5,0.6-0.7,1.6-0.7,3v1.1h4.2V19.2z"/>
	<path class="st0" d="M76.7,25.5c0,2.7-0.7,4.8-2,6.3s-3.2,2.3-5.6,2.3c-1.5,0-2.8-0.3-3.9-1c-1.1-0.7-2-1.7-2.7-3s-0.9-2.8-0.9-4.6
		c0-2.7,0.7-4.8,2-6.3c1.3-1.5,3.2-2.3,5.6-2.3c2.3,0,4.2,0.8,5.5,2.3S76.7,22.9,76.7,25.5z M64.1,25.5c0,2.1,0.4,3.7,1.3,4.8
		c0.8,1.1,2.1,1.7,3.7,1.7c1.6,0,2.9-0.6,3.7-1.7c0.9-1.1,1.3-2.7,1.3-4.8c0-2.1-0.4-3.7-1.3-4.8c-0.9-1.1-2.1-1.6-3.8-1.6
		c-1.6,0-2.9,0.5-3.7,1.6C64.5,21.8,64.1,23.4,64.1,25.5z"/>
	<path class="st0" d="M95.3,25.5c0,2.7-0.7,4.8-2,6.3s-3.2,2.3-5.6,2.3c-1.5,0-2.8-0.3-3.9-1c-1.1-0.7-2-1.7-2.7-3s-0.9-2.8-0.9-4.6
		c0-2.7,0.7-4.8,2-6.3c1.3-1.5,3.2-2.3,5.6-2.3c2.3,0,4.2,0.8,5.5,2.3S95.3,22.9,95.3,25.5z M82.7,25.5c0,2.1,0.4,3.7,1.3,4.8
		c0.8,1.1,2.1,1.7,3.7,1.7c1.6,0,2.9-0.6,3.7-1.7c0.9-1.1,1.3-2.7,1.3-4.8c0-2.1-0.4-3.7-1.3-4.8c-0.9-1.1-2.1-1.6-3.8-1.6
		c-1.6,0-2.9,0.5-3.7,1.6C83.2,21.8,82.7,23.4,82.7,25.5z"/>
	<path class="st0" d="M111,31.6h-0.1c-1.2,1.7-2.9,2.5-5.2,2.5c-2.2,0-3.8-0.7-5.1-2.2c-1.2-1.5-1.8-3.6-1.8-6.3s0.6-4.8,1.8-6.4
		s2.9-2.3,5-2.3c2.2,0,4,0.8,5.2,2.4h0.2l-0.1-1.2l-0.1-1.2v-6.7h2.5v23.5h-2L111,31.6z M106,32c1.7,0,3-0.5,3.7-1.4
		c0.8-0.9,1.2-2.4,1.2-4.5v-0.5c0-2.3-0.4-4-1.2-5s-2-1.5-3.7-1.5c-1.5,0-2.6,0.6-3.4,1.7s-1.2,2.8-1.2,4.8c0,2.1,0.4,3.7,1.2,4.8
		C103.4,31.5,104.5,32,106,32z"/>
	<path class="st0" d="M118.5,12.8c0-0.6,0.1-1,0.4-1.3c0.3-0.3,0.6-0.4,1.1-0.4c0.4,0,0.8,0.1,1,0.4s0.4,0.7,0.4,1.3
		c0,0.6-0.1,1-0.4,1.3s-0.6,0.4-1,0.4c-0.4,0-0.8-0.1-1.1-0.4C118.6,13.8,118.5,13.4,118.5,12.8z M121.2,33.8h-2.5V17.3h2.5V33.8z"
		/>
	<path class="st0" d="M133.5,34.1c-2.4,0-4.4-0.7-5.8-2.2c-1.4-1.5-2.1-3.6-2.1-6.2c0-2.7,0.7-4.8,2-6.4c1.3-1.6,3.1-2.4,5.3-2.4
		c2.1,0,3.7,0.7,4.9,2s1.8,3.2,1.8,5.4V26h-11.4c0.1,1.9,0.5,3.4,1.5,4.4c0.9,1,2.2,1.5,3.9,1.5c1.8,0,3.5-0.4,5.3-1.1v2.2
		c-0.9,0.4-1.7,0.7-2.5,0.8C135.6,34.1,134.6,34.1,133.5,34.1z M132.8,19.1c-1.3,0-2.4,0.4-3.2,1.3c-0.8,0.9-1.3,2.1-1.4,3.6h8.7
		c0-1.6-0.4-2.8-1.1-3.6S134.1,19.1,132.8,19.1z"/>
</g>
<g>
	<path class="st1" d="M158.2,19.8h-4.1v14h-3.6v-14h-2.7v-1.7l2.7-1.1V16c0-2,0.5-3.4,1.4-4.4c0.9-1,2.3-1.4,4.2-1.4
		c1.2,0,2.5,0.2,3.7,0.6l-0.9,2.7c-0.9-0.3-1.7-0.4-2.5-0.4c-0.8,0-1.4,0.2-1.8,0.7c-0.4,0.5-0.6,1.2-0.6,2.2v1.1h4.1V19.8z"/>
	<path class="st1" d="M177.4,25.5c0,2.7-0.7,4.9-2.1,6.4c-1.4,1.5-3.3,2.3-5.8,2.3c-1.6,0-2.9-0.4-4.1-1.1c-1.2-0.7-2.1-1.7-2.8-3
		s-1-2.8-1-4.6c0-2.7,0.7-4.8,2.1-6.3c1.4-1.5,3.3-2.3,5.9-2.3c2.4,0,4.3,0.8,5.7,2.3C176.7,20.7,177.4,22.8,177.4,25.5z
		 M165.2,25.5c0,3.9,1.4,5.8,4.3,5.8c2.8,0,4.2-1.9,4.2-5.8c0-3.8-1.4-5.7-4.3-5.7c-1.5,0-2.6,0.5-3.2,1.5
		C165.5,22.2,165.2,23.6,165.2,25.5z"/>
	<path class="st1" d="M197.1,17.1v1.9l-2.9,0.5c0.3,0.4,0.5,0.8,0.6,1.3c0.2,0.5,0.3,1.1,0.3,1.6c0,1.7-0.6,3.1-1.8,4.1
		c-1.2,1-2.8,1.5-4.9,1.5c-0.5,0-1,0-1.4-0.1c-0.8,0.5-1.1,1-1.1,1.7c0,0.4,0.2,0.7,0.5,0.9c0.4,0.2,1,0.3,2,0.3h2.9
		c1.8,0,3.2,0.4,4.2,1.2c1,0.8,1.4,1.9,1.4,3.4c0,1.9-0.8,3.4-2.3,4.4s-3.8,1.5-6.8,1.5c-2.3,0-4-0.4-5.2-1.2s-1.8-2-1.8-3.4
		c0-1,0.3-1.9,1-2.6s1.6-1.2,2.7-1.5c-0.5-0.2-0.9-0.5-1.2-1c-0.3-0.4-0.5-0.9-0.5-1.4c0-0.6,0.2-1.2,0.5-1.6
		c0.4-0.4,0.9-0.9,1.6-1.3c-0.9-0.4-1.6-1-2.1-1.8c-0.5-0.8-0.8-1.8-0.8-3c0-1.8,0.6-3.2,1.7-4.2c1.1-1,2.8-1.5,4.9-1.5
		c0.5,0,1,0,1.5,0.1s0.9,0.1,1.2,0.2H197.1z M184,36.4c0,0.8,0.3,1.4,1,1.8c0.7,0.4,1.7,0.6,2.9,0.6c1.9,0,3.4-0.3,4.3-0.8
		c0.9-0.6,1.4-1.3,1.4-2.2c0-0.7-0.3-1.2-0.8-1.5s-1.5-0.5-2.9-0.5h-2.7c-1,0-1.8,0.2-2.4,0.7C184.3,35,184,35.6,184,36.4z
		 M185.5,22.5c0,1,0.3,1.9,0.8,2.4c0.5,0.6,1.3,0.8,2.3,0.8c2.1,0,3.1-1.1,3.1-3.3c0-1.1-0.3-1.9-0.8-2.5c-0.5-0.6-1.3-0.9-2.3-0.9
		c-1,0-1.8,0.3-2.3,0.9C185.8,20.6,185.5,21.4,185.5,22.5z"/>
	<path class="st1" d="M215.8,17.1v1.9l-2.9,0.5c0.3,0.4,0.5,0.8,0.6,1.3c0.2,0.5,0.3,1.1,0.3,1.6c0,1.7-0.6,3.1-1.8,4.1
		c-1.2,1-2.8,1.5-4.9,1.5c-0.5,0-1,0-1.4-0.1c-0.8,0.5-1.1,1-1.1,1.7c0,0.4,0.2,0.7,0.5,0.9c0.4,0.2,1,0.3,2,0.3h2.9
		c1.8,0,3.2,0.4,4.2,1.2c1,0.8,1.4,1.9,1.4,3.4c0,1.9-0.8,3.4-2.3,4.4s-3.8,1.5-6.8,1.5c-2.3,0-4-0.4-5.2-1.2s-1.8-2-1.8-3.4
		c0-1,0.3-1.9,1-2.6s1.6-1.2,2.7-1.5c-0.5-0.2-0.9-0.5-1.2-1c-0.3-0.4-0.5-0.9-0.5-1.4c0-0.6,0.2-1.2,0.5-1.6
		c0.4-0.4,0.9-0.9,1.6-1.3c-0.9-0.4-1.6-1-2.1-1.8c-0.5-0.8-0.8-1.8-0.8-3c0-1.8,0.6-3.2,1.7-4.2c1.1-1,2.8-1.5,4.9-1.5
		c0.5,0,1,0,1.5,0.1s0.9,0.1,1.2,0.2H215.8z M202.7,36.4c0,0.8,0.3,1.4,1,1.8c0.7,0.4,1.7,0.6,2.9,0.6c1.9,0,3.4-0.3,4.3-0.8
		c0.9-0.6,1.4-1.3,1.4-2.2c0-0.7-0.3-1.2-0.8-1.5s-1.5-0.5-2.9-0.5H206c-1,0-1.8,0.2-2.4,0.7C203,35,202.7,35.6,202.7,36.4z
		 M204.2,22.5c0,1,0.3,1.9,0.8,2.4c0.5,0.6,1.3,0.8,2.3,0.8c2.1,0,3.1-1.1,3.1-3.3c0-1.1-0.3-1.9-0.8-2.5c-0.5-0.6-1.3-0.9-2.3-0.9
		c-1,0-1.8,0.3-2.3,0.9C204.5,20.6,204.2,21.4,204.2,22.5z"/>
</g>
<g>
	<path class="st1" d="M36.8,22.2c0,8-6.5,14.3-14.4,14.3S7.9,30,7.9,22S14,7.6,21.9,7.6c0.8,0,2.1,0.1,2.1,0.1V6.8
		c0-0.1-1.2-0.2-2.1-0.2C13.4,6.6,6.7,13.5,6.7,22c0,8.5,7,15.4,15.5,15.4s15.5-6.7,15.5-15.2c0-0.1,0-0.2,0-0.2h-0.9
		C36.8,22,36.8,22.1,36.8,22.2z"/>
	<path class="st1" d="M22.2,37.9c-8.8,0-16-7.1-16-15.9c0-8.8,7-15.9,15.7-15.9c2.4,0,2.6,0.3,2.6,0.7v1.5L24,8.2c0,0-1.2-0.1-2-0.1
		c-7.6,0-13.5,6.1-13.5,14c0,7.7,6.2,14,13.9,14c7.7,0,13.9-6.2,13.9-13.8c0-0.2,0-0.2,0-0.2l0.1-0.4l1.8,0l0,0.5c0,0,0,0.1,0,0.2
		C38.2,30.8,31,37.9,22.2,37.9z M14.4,9.2c-4.3,2.6-7.2,7.4-7.2,12.8c0,5,2.5,9.5,6.4,12.2C9.9,31.4,7.4,27,7.4,22
		C7.4,16.5,10.2,11.7,14.4,9.2z M21.9,7.1c-0.8,0-1.6,0.1-2.3,0.2C20.4,7.1,21.1,7.1,21.9,7.1c0.5,0,1.1,0,1.6,0.1
		C23.2,7.1,22.6,7.1,21.9,7.1z"/>
</g>
<g>
	<rect x="21.2" y="28" class="st0" width="2.3" height="1.6"/>
	<path class="st0" d="M23.2,14.5c-0.2,0-0.5,0-0.8,0c-0.2,0-0.5,0-0.7,0c-0.3,0.6-1.1,2.7-1,4.5c0,2,1.3,7.7,1.6,8.2
		c0.1,0,0.3,0,0.4,0c0.2-0.6,1.5-5.6,1.5-8.2C24.2,16.7,23.4,15,23.2,14.5z"/>
	<path class="st0" d="M20.2,14.8c-2.6,0.9-3.6,3.1-3.6,4.4c0,2.9,3.6,6,4.6,8.1c0.1,0,0.3,0,0.5,0c-0.4-0.6-3.1-5.8-3.1-8.2
		C18.6,16.9,19.9,15.2,20.2,14.8z"/>
	<path class="st0" d="M28.3,19.3c0-1.3-1.1-3.7-3.9-4.5c0.6,0.5,1.9,2.1,1.9,4.3c0,2.6-2.8,7.6-3.2,8.2c0.3,0,0.5,0,0.5,0
		C24.1,26,28.3,22.1,28.3,19.3z"/>
</g>
<g>
	<rect x="32.9" y="17.3" class="st0" width="1.5" height="1"/>
	<path class="st0" d="M34.2,8.6c-0.2,0-0.3,0-0.5,0c-0.2,0-0.3,0-0.4,0c-0.2,0.4-0.7,1.7-0.7,2.9c0,1.3,0.9,4.7,1,5.3
		c0.1,0,0.2,0,0.3,0c0.1-0.6,1-3.6,1-5.3C34.8,9.9,34.3,8.9,34.2,8.6z"/>
	<path class="st0" d="M32.2,8.8c-1.7,0.5-2.3,2-2.3,2.8c0,1.9,2.3,3.8,3,5.2c0.1,0,0.2,0,0.3,0c-0.3-0.6-2-3.7-2-5.3
		C31.2,10,32,9,32.2,8.8z"/>
	<path class="st0" d="M37.5,11.6c0-0.8-0.7-2.4-2.5-2.9c0.4,0.3,1.3,1.3,1.3,2.8c0,1.7-1.8,4.7-2.1,5.3c0.2,0,0.3,0,0.3,0
		C34.8,16.2,37.5,13.4,37.5,11.6z"/>
</g>
</svg>
