<svg id="Capa_1" data-name="Capa 1" xmlns="http://www.w3.org/2000/svg" viewBox="0 0 80 80"><defs><style>.cls-1{fill:#ffb4ad;}.cls-2{fill:#00695c;}</style></defs><title>icons</title><g id="Grupo_199" data-name="Grupo 199"><rect id="Rectángulo_279" data-name="Rectángulo 279" class="cls-1" y="48.29" width="60.06" height="20.71"/><g id="Grupo_191" data-name="Grupo 191"><path id="Trazado_307" data-name="Trazado 307" class="cls-2" d="M39.48,56.86A17.09,17.09,0,1,0,22.4,39.78,17.1,17.1,0,0,0,39.48,56.86Zm0-32.3A15.22,15.22,0,1,1,24.26,39.78,15.24,15.24,0,0,1,39.48,24.56Z"/><path id="Trazado_308" data-name="Trazado 308" class="cls-2" d="M18.05,57.69V29.53A4.57,4.57,0,0,0,21.67,25V18.66a.87.87,0,0,0-1-.83,1,1,0,0,0-.93.93V25a2.7,2.7,0,1,1-5.39,0V18.76a1.11,1.11,0,0,0-.93-1,1.13,1.13,0,0,0-1,.83v6.32A4.77,4.77,0,0,0,16,29.43V57.59a.92.92,0,0,0,.93.93c.52,0,1.14-.31,1.14-.83Z"/><path id="Trazado_309" data-name="Trazado 309" class="cls-2" d="M17.12,26.53a.94.94,0,0,0,.93-.94h0V18.76a1.12,1.12,0,0,0-.93-1,1.11,1.11,0,0,0-1,.94v6.93A1,1,0,0,0,17.12,26.53Z"/><path id="Trazado_310" data-name="Trazado 310" class="cls-2" d="M63.3,17a3,3,0,0,0-3,3V37.92a.85.85,0,0,0,.94.82h3.21V57.59a1,1,0,0,0,1,.93.92.92,0,0,0,.93-.93V19.9A3.15,3.15,0,0,0,63.3,17Zm1.14,20H62.16V20.11a1.14,1.14,0,0,1,2.28,0V37Z"/></g></g></svg>