<svg xmlns="http://www.w3.org/2000/svg" width="16" height="16" viewBox="0 0 16 16">
  <g id="Symbol_62_17" data-name="Symbol 62 – 17" transform="translate(0 0)">
    <rect id="Rectangle_176" data-name="Rectangle 176" width="16" height="16" transform="translate(0 0)" fill="none"/>
    <path id="Path_99" data-name="Path 99" d="M15.2,13.866,12.049,10.71a6.547,6.547,0,0,0,1.339-4.016A6.653,6.653,0,0,0,6.694,0,6.653,6.653,0,0,0,0,6.694a6.653,6.653,0,0,0,6.694,6.694,6.547,6.547,0,0,0,4.016-1.339L13.866,15.2ZM1.913,6.694A4.735,4.735,0,0,1,6.694,1.913a4.735,4.735,0,0,1,4.781,4.781,4.735,4.735,0,0,1-4.781,4.781A4.735,4.735,0,0,1,1.913,6.694Z" transform="translate(0.4 0.3)" fill="#00695c"/>
  </g>
</svg>
