<?xml version="1.0" encoding="utf-8"?>
<!-- Generator: Adobe Illustrator 22.1.0, SVG Export Plug-In . SVG Version: 6.00 Build 0)  -->
<svg version="1.1" id="Capa_1" xmlns="http://www.w3.org/2000/svg" xmlns:xlink="http://www.w3.org/1999/xlink" x="0px" y="0px"
	 viewBox="0 0 120 120" style="enable-background:new 0 0 120 120;" xml:space="preserve">
<style type="text/css">
	.st0{fill:#003D33;}
</style>
<path class="st0" d="M39.2,105.8c42.7,0,66.1-35.4,66.1-66.1c0-1,0-2-0.1-3c4.5-3.3,8.5-7.4,11.6-12c-4.2,1.8-8.6,3.1-13.3,3.7
	c4.8-2.9,8.5-7.4,10.2-12.8c-4.5,2.7-9.5,4.6-14.7,5.6c-4.2-4.5-10.3-7.3-17-7.3c-12.8,0-23.2,10.4-23.2,23.2c0,1.8,0.2,3.6,0.6,5.3
	c-19.3-1-36.4-10.2-47.9-24.3c-2,3.4-3.1,7.4-3.1,11.7c0,8.1,4.1,15.2,10.3,19.3c-3.8-0.1-7.4-1.2-10.5-2.9c0,0.1,0,0.2,0,0.3
	c0,11.2,8,20.6,18.6,22.8c-2,0.5-4,0.8-6.1,0.8c-1.5,0-3-0.1-4.4-0.4c3,9.2,11.5,15.9,21.7,16.1c-8,6.2-18,9.9-28.8,9.9
	c-1.9,0-3.7-0.1-5.5-0.3C13.8,102,26,105.8,39.2,105.8"/>
</svg>
